<mxfile host="app.diagrams.net" modified="2021-01-05T13:51:14.478Z" agent="5.0 (Windows NT 10.0; Win64; x64) AppleWebKit/537.36 (KHTML, like Gecko) Chrome/87.0.4280.88 Safari/537.36 Edg/87.0.664.66" etag="YTvcL2jC9jKqgMnYC_zh" version="14.1.8" type="github">
  <diagram id="oYuTpiQo7nMOFyix_-zB" name="Page-1">
    <mxGraphModel dx="1012" dy="1724" grid="1" gridSize="10" guides="1" tooltips="1" connect="1" arrows="1" fold="1" page="1" pageScale="1" pageWidth="827" pageHeight="1169" math="0" shadow="0">
      <root>
        <mxCell id="0" />
        <mxCell id="1" parent="0" />
        <mxCell id="MQwHGUbZg42DNVhNB7bk-1" value="" style="whiteSpace=wrap;html=1;aspect=fixed;" vertex="1" parent="1">
          <mxGeometry x="360" y="-270" width="80" height="80" as="geometry" />
        </mxCell>
        <mxCell id="MQwHGUbZg42DNVhNB7bk-2" value="" style="shape=cylinder3;whiteSpace=wrap;html=1;boundedLbl=1;backgroundOutline=1;size=15;" vertex="1" parent="1">
          <mxGeometry x="250" y="-310" width="60" height="80" as="geometry" />
        </mxCell>
        <mxCell id="MQwHGUbZg42DNVhNB7bk-3" value="" style="ellipse;shape=cloud;whiteSpace=wrap;html=1;" vertex="1" parent="1">
          <mxGeometry x="390" y="-390" width="120" height="80" as="geometry" />
        </mxCell>
        <mxCell id="MQwHGUbZg42DNVhNB7bk-4" value="" style="shape=tape;whiteSpace=wrap;html=1;" vertex="1" parent="1">
          <mxGeometry x="540" y="-280" width="120" height="100" as="geometry" />
        </mxCell>
      </root>
    </mxGraphModel>
  </diagram>
</mxfile>
